<?xml version="1.0" encoding="UTF-8"?>
<svg xmlns="http://www.w3.org/2000/svg" width="2400" height="3130" viewBox="0 0 2400 3130" role="img" aria-labelledby="title subtitle">
    <title id="title">Common web codec memory</title>
    <rect width="2400" height="3130" fill="#f8fafc" />
    <style>
      text { font-family: Inter, Arial, sans-serif; fill: #172033; }
      .title { font-size: 56px; font-weight: 750; }
      .subtitle { font-size: 28px; fill: #526077; }
      .legend { font-size: 20px; font-weight: 650; }
      .tick { font-size: 19px; fill: #64748b; }
      .workflow { font-size: 24px; font-weight: 750; }
      .engine { font-size: 18px; fill: #40506a; }
      .value { font-size: 17px; font-weight: 700; fill: #273449; }
      .unsupported { font-size: 17px; font-weight: 700; fill: #94a3b8; }
      .footer { font-size: 20px; fill: #526077; }
      .source { font-size: 18px; fill: #718096; }
    </style>
    <text x="54" y="78" class="title" id="heading">Common web codec memory</text>
    <text x="54" y="124" class="subtitle" id="subtitle">Median absolute peak RSS · linear scale · lower is better</text>
    <text x="54" y="168" class="source">Validated web-codecs profile · 2026-08-18 · linux x64 · v24.16.0</text>
    <rect x="54" y="214" width="24" height="24" rx="5" fill="#2563eb" />
        <text x="90" y="233" class="legend">PureJsImage · pure JS</text>
<rect x="834" y="214" width="24" height="24" rx="5" fill="#c026d3" />
        <text x="870" y="233" class="legend">PureJsImage · WASM opt-in (JPEG/PNG)</text>
<rect x="1614" y="214" width="24" height="24" rx="5" fill="#7c3aed" />
        <text x="1650" y="233" class="legend">Jimp · pure JS</text>
<rect x="54" y="252" width="24" height="24" rx="5" fill="#ea580c" />
        <text x="90" y="271" class="legend">Sharp · native/libvips</text>
<rect x="834" y="252" width="24" height="24" rx="5" fill="#dc2626" />
        <text x="870" y="271" class="legend">Sharp 1 thread · native/libvips</text>
<rect x="1614" y="252" width="24" height="24" rx="5" fill="#059669" />
        <text x="1650" y="271" class="legend">image-js · pure JS</text>
<rect x="54" y="290" width="24" height="24" rx="5" fill="#0891b2" />
        <text x="90" y="309" class="legend">jSquash · WebAssembly</text>
    <line x1="760" y1="308" x2="760" y2="2942" stroke="#dbe3ef" stroke-width="2" />
        <text x="760" y="292" text-anchor="middle" class="tick">0</text>
<line x1="1125" y1="308" x2="1125" y2="2942" stroke="#dbe3ef" stroke-width="2" />
        <text x="1125" y="292" text-anchor="middle" class="tick">200</text>
<line x1="1490" y1="308" x2="1490" y2="2942" stroke="#dbe3ef" stroke-width="2" />
        <text x="1490" y="292" text-anchor="middle" class="tick">400</text>
<line x1="1855" y1="308" x2="1855" y2="2942" stroke="#dbe3ef" stroke-width="2" />
        <text x="1855" y="292" text-anchor="middle" class="tick">600</text>
<line x1="2220" y1="308" x2="2220" y2="2942" stroke="#dbe3ef" stroke-width="2" />
        <text x="2220" y="292" text-anchor="middle" class="tick">800</text>
    <text x="54" y="347" class="workflow">JPEG resize → JPEG</text>
        <line x1="54" y1="533" x2="2328" y2="533" stroke="#e8edf5" stroke-width="2" />
        <text x="730" y="373" text-anchor="end" class="engine">PureJsImage · pure JS</text>
            <rect x="760" y="358" width="308.3394531250001" height="19" rx="4" fill="#2563eb" />
            <text x="1080.339453125" y="373" class="value">169.0 MiB</text>
<text x="730" y="399" text-anchor="end" class="engine">PureJsImage · WASM opt-in (JPEG/PNG)</text>
            <rect x="760" y="384" width="309.70820312499995" height="19" rx="4" fill="#c026d3" />
            <text x="1081.708203125" y="399" class="value">169.7 MiB</text>
<text x="730" y="425" text-anchor="end" class="engine">Jimp · pure JS</text>
            <rect x="760" y="410" width="1090.94365234375" height="19" rx="4" fill="#7c3aed" />
            <text x="1862.94365234375" y="425" class="value">597.8 MiB</text>
<text x="730" y="451" text-anchor="end" class="engine">Sharp · native/libvips</text>
            <rect x="760" y="436" width="316.1099609375001" height="19" rx="4" fill="#ea580c" />
            <text x="1088.1099609375" y="451" class="value">173.2 MiB</text>
<text x="730" y="477" text-anchor="end" class="engine">Sharp 1 thread · native/libvips</text>
            <rect x="760" y="462" width="315.26874999999995" height="19" rx="4" fill="#dc2626" />
            <text x="1087.26875" y="477" class="value">172.8 MiB</text>
<text x="730" y="503" text-anchor="end" class="engine">image-js · pure JS</text>
            <rect x="760" y="488" width="1042.0322265625" height="19" rx="4" fill="#059669" />
            <text x="1814.0322265625" y="503" class="value">571.0 MiB</text>
<text x="730" y="529" text-anchor="end" class="engine">jSquash · WebAssembly</text>
            <rect x="760" y="514" width="1104.8949218750001" height="19" rx="4" fill="#0891b2" />
            <text x="1876.8949218750001" y="529" class="value">605.4 MiB</text>
<text x="54" y="567" class="workflow">Progressive JPEG resize → JPEG</text>
        <line x1="54" y1="753" x2="2328" y2="753" stroke="#e8edf5" stroke-width="2" />
        <text x="730" y="593" text-anchor="end" class="engine">PureJsImage · pure JS</text>
            <rect x="760" y="578" width="368.82109375000005" height="19" rx="4" fill="#2563eb" />
            <text x="1140.82109375" y="593" class="value">202.1 MiB</text>
<text x="730" y="619" text-anchor="end" class="engine">PureJsImage · WASM opt-in (JPEG/PNG)</text>
            <rect x="760" y="604" width="367.85869140625005" height="19" rx="4" fill="#c026d3" />
            <text x="1139.85869140625" y="619" class="value">201.6 MiB</text>
<text x="730" y="645" text-anchor="end" class="engine">Jimp · pure JS</text>
            <rect x="760" y="630" width="1005.38251953125" height="19" rx="4" fill="#7c3aed" />
            <text x="1777.38251953125" y="645" class="value">550.9 MiB</text>
<text x="730" y="671" text-anchor="end" class="engine">Sharp · native/libvips</text>
            <rect x="760" y="656" width="426.17314453125005" height="19" rx="4" fill="#ea580c" />
            <text x="1198.17314453125" y="671" class="value">233.5 MiB</text>
<text x="730" y="697" text-anchor="end" class="engine">Sharp 1 thread · native/libvips</text>
            <rect x="760" y="682" width="425.33906249999995" height="19" rx="4" fill="#dc2626" />
            <text x="1197.3390625" y="697" class="value">233.1 MiB</text>
<text x="730" y="723" text-anchor="end" class="engine">image-js · pure JS</text>
            <rect x="760" y="708" width="957.6830078124999" height="19" rx="4" fill="#059669" />
            <text x="1729.6830078125" y="723" class="value">524.8 MiB</text>
<text x="730" y="749" text-anchor="end" class="engine">jSquash · WebAssembly</text>
            <rect x="760" y="734" width="1162.95986328125" height="19" rx="4" fill="#0891b2" />
            <text x="1934.95986328125" y="749" class="value">637.2 MiB</text>
<text x="54" y="787" class="workflow">Lambda JPEG thumbnail</text>
        <line x1="54" y1="973" x2="2328" y2="973" stroke="#e8edf5" stroke-width="2" />
        <text x="730" y="813" text-anchor="end" class="engine">PureJsImage · pure JS</text>
            <rect x="760" y="798" width="259.2783203125" height="19" rx="4" fill="#2563eb" />
            <text x="1031.2783203125" y="813" class="value">142.1 MiB</text>
<text x="730" y="839" text-anchor="end" class="engine">PureJsImage · WASM opt-in (JPEG/PNG)</text>
            <rect x="760" y="824" width="262.17265625000005" height="19" rx="4" fill="#c026d3" />
            <text x="1034.17265625" y="839" class="value">143.7 MiB</text>
<text x="730" y="865" text-anchor="end" class="engine">Jimp · pure JS</text>
            <rect x="760" y="850" width="1098.34345703125" height="19" rx="4" fill="#7c3aed" />
            <text x="1870.34345703125" y="865" class="value">601.8 MiB</text>
<text x="730" y="891" text-anchor="end" class="engine">Sharp · native/libvips</text>
            <rect x="760" y="876" width="246.04707031249995" height="19" rx="4" fill="#ea580c" />
            <text x="1018.0470703125" y="891" class="value">134.8 MiB</text>
<text x="730" y="917" text-anchor="end" class="engine">Sharp 1 thread · native/libvips</text>
            <rect x="760" y="902" width="245.27714843750005" height="19" rx="4" fill="#dc2626" />
            <text x="1017.2771484375" y="917" class="value">134.4 MiB</text>
<text x="730" y="943" text-anchor="end" class="engine">image-js · pure JS</text>
            <rect x="760" y="928" width="1058.1934570312499" height="19" rx="4" fill="#059669" />
            <text x="1830.1934570312499" y="943" class="value">579.8 MiB</text>
<text x="730" y="969" text-anchor="end" class="engine">jSquash · WebAssembly</text>
            <rect x="760" y="954" width="1019.9540039062499" height="19" rx="4" fill="#0891b2" />
            <text x="1791.95400390625" y="969" class="value">558.9 MiB</text>
<text x="54" y="1007" class="workflow">PNG resize → PNG</text>
        <line x1="54" y1="1193" x2="2328" y2="1193" stroke="#e8edf5" stroke-width="2" />
        <text x="730" y="1033" text-anchor="end" class="engine">PureJsImage · pure JS</text>
            <rect x="760" y="1018" width="357.9994140624999" height="19" rx="4" fill="#2563eb" />
            <text x="1129.9994140625" y="1033" class="value">196.2 MiB</text>
<text x="730" y="1059" text-anchor="end" class="engine">PureJsImage · WASM opt-in (JPEG/PNG)</text>
            <rect x="760" y="1044" width="360.8438476562501" height="19" rx="4" fill="#c026d3" />
            <text x="1132.84384765625" y="1059" class="value">197.7 MiB</text>
<text x="730" y="1085" text-anchor="end" class="engine">Jimp · pure JS</text>
            <rect x="760" y="1070" width="563.9178710937499" height="19" rx="4" fill="#7c3aed" />
            <text x="1335.91787109375" y="1085" class="value">309.0 MiB</text>
<text x="730" y="1111" text-anchor="end" class="engine">Sharp · native/libvips</text>
            <rect x="760" y="1096" width="316.1170898437499" height="19" rx="4" fill="#ea580c" />
            <text x="1088.11708984375" y="1111" class="value">173.2 MiB</text>
<text x="730" y="1137" text-anchor="end" class="engine">Sharp 1 thread · native/libvips</text>
            <rect x="760" y="1122" width="315.98164062499995" height="19" rx="4" fill="#dc2626" />
            <text x="1087.981640625" y="1137" class="value">173.1 MiB</text>
<text x="730" y="1163" text-anchor="end" class="engine">image-js · pure JS</text>
            <rect x="760" y="1148" width="531.4385742187501" height="19" rx="4" fill="#059669" />
            <text x="1303.43857421875" y="1163" class="value">291.2 MiB</text>
<text x="730" y="1189" text-anchor="end" class="engine">jSquash · WebAssembly</text>
            <rect x="760" y="1174" width="958.41015625" height="19" rx="4" fill="#0891b2" />
            <text x="1730.41015625" y="1189" class="value">525.2 MiB</text>
<text x="54" y="1227" class="workflow">WebP resize → JPEG</text>
        <line x1="54" y1="1413" x2="2328" y2="1413" stroke="#e8edf5" stroke-width="2" />
        <text x="730" y="1253" text-anchor="end" class="engine">PureJsImage · pure JS</text>
            <rect x="760" y="1238" width="311.9751953125001" height="19" rx="4" fill="#2563eb" />
            <text x="1083.9751953125" y="1253" class="value">170.9 MiB</text>
<text x="730" y="1279" text-anchor="end" class="engine">PureJsImage · WASM opt-in (JPEG/PNG)</text>
            <rect x="760" y="1264" width="313.71464843750005" height="19" rx="4" fill="#c026d3" />
            <text x="1085.7146484375" y="1279" class="value">171.9 MiB</text>
<text x="730" y="1305" text-anchor="end" class="engine">Jimp · pure JS</text>
              <text x="772" y="1305" class="unsupported">unsupported</text>
<text x="730" y="1331" text-anchor="end" class="engine">Sharp · native/libvips</text>
            <rect x="760" y="1316" width="282.38310546875005" height="19" rx="4" fill="#ea580c" />
            <text x="1054.38310546875" y="1331" class="value">154.7 MiB</text>
<text x="730" y="1357" text-anchor="end" class="engine">Sharp 1 thread · native/libvips</text>
            <rect x="760" y="1342" width="280.98583984375" height="19" rx="4" fill="#dc2626" />
            <text x="1052.98583984375" y="1357" class="value">154.0 MiB</text>
<text x="730" y="1383" text-anchor="end" class="engine">image-js · pure JS</text>
              <text x="772" y="1383" class="unsupported">unsupported</text>
<text x="730" y="1409" text-anchor="end" class="engine">jSquash · WebAssembly</text>
            <rect x="760" y="1394" width="512.4828124999999" height="19" rx="4" fill="#0891b2" />
            <text x="1284.4828125" y="1409" class="value">280.8 MiB</text>
<text x="54" y="1447" class="workflow">Lossless WebP alpha → PNG</text>
        <line x1="54" y1="1633" x2="2328" y2="1633" stroke="#e8edf5" stroke-width="2" />
        <text x="730" y="1473" text-anchor="end" class="engine">PureJsImage · pure JS</text>
            <rect x="760" y="1458" width="229.05888671875005" height="19" rx="4" fill="#2563eb" />
            <text x="1001.05888671875" y="1473" class="value">125.5 MiB</text>
<text x="730" y="1499" text-anchor="end" class="engine">PureJsImage · WASM opt-in (JPEG/PNG)</text>
            <rect x="760" y="1484" width="232.01738281250005" height="19" rx="4" fill="#c026d3" />
            <text x="1004.0173828125" y="1499" class="value">127.1 MiB</text>
<text x="730" y="1525" text-anchor="end" class="engine">Jimp · pure JS</text>
              <text x="772" y="1525" class="unsupported">unsupported</text>
<text x="730" y="1551" text-anchor="end" class="engine">Sharp · native/libvips</text>
            <rect x="760" y="1536" width="197.90556640625005" height="19" rx="4" fill="#ea580c" />
            <text x="969.90556640625" y="1551" class="value">108.4 MiB</text>
<text x="730" y="1577" text-anchor="end" class="engine">Sharp 1 thread · native/libvips</text>
            <rect x="760" y="1562" width="197.33525390625005" height="19" rx="4" fill="#dc2626" />
            <text x="969.33525390625" y="1577" class="value">108.1 MiB</text>
<text x="730" y="1603" text-anchor="end" class="engine">image-js · pure JS</text>
              <text x="772" y="1603" class="unsupported">unsupported</text>
<text x="730" y="1629" text-anchor="end" class="engine">jSquash · WebAssembly</text>
            <rect x="760" y="1614" width="189.87841796875" height="19" rx="4" fill="#0891b2" />
            <text x="961.87841796875" y="1629" class="value">104.0 MiB</text>
<text x="54" y="1667" class="workflow">JPEG → WebP</text>
        <line x1="54" y1="1853" x2="2328" y2="1853" stroke="#e8edf5" stroke-width="2" />
        <text x="730" y="1693" text-anchor="end" class="engine">PureJsImage · pure JS</text>
            <rect x="760" y="1678" width="278.09150390624995" height="19" rx="4" fill="#2563eb" />
            <text x="1050.09150390625" y="1693" class="value">152.4 MiB</text>
<text x="730" y="1719" text-anchor="end" class="engine">PureJsImage · WASM opt-in (JPEG/PNG)</text>
            <rect x="760" y="1704" width="279.63134765625" height="19" rx="4" fill="#c026d3" />
            <text x="1051.63134765625" y="1719" class="value">153.2 MiB</text>
<text x="730" y="1745" text-anchor="end" class="engine">Jimp · pure JS</text>
              <text x="772" y="1745" class="unsupported">unsupported</text>
<text x="730" y="1771" text-anchor="end" class="engine">Sharp · native/libvips</text>
            <rect x="760" y="1756" width="258.91474609374995" height="19" rx="4" fill="#ea580c" />
            <text x="1030.91474609375" y="1771" class="value">141.9 MiB</text>
<text x="730" y="1797" text-anchor="end" class="engine">Sharp 1 thread · native/libvips</text>
            <rect x="760" y="1782" width="259.31396484375" height="19" rx="4" fill="#dc2626" />
            <text x="1031.31396484375" y="1797" class="value">142.1 MiB</text>
<text x="730" y="1823" text-anchor="end" class="engine">image-js · pure JS</text>
              <text x="772" y="1823" class="unsupported">unsupported</text>
<text x="730" y="1849" text-anchor="end" class="engine">jSquash · WebAssembly</text>
            <rect x="760" y="1834" width="1060.64580078125" height="19" rx="4" fill="#0891b2" />
            <text x="1832.64580078125" y="1849" class="value">581.2 MiB</text>
<text x="54" y="1887" class="workflow">TIFF resize → JPEG</text>
        <line x1="54" y1="2073" x2="2328" y2="2073" stroke="#e8edf5" stroke-width="2" />
        <text x="730" y="1913" text-anchor="end" class="engine">PureJsImage · pure JS</text>
            <rect x="760" y="1898" width="427.7914062499999" height="19" rx="4" fill="#2563eb" />
            <text x="1199.79140625" y="1913" class="value">234.4 MiB</text>
<text x="730" y="1939" text-anchor="end" class="engine">PureJsImage · WASM opt-in (JPEG/PNG)</text>
            <rect x="760" y="1924" width="422.6728515625" height="19" rx="4" fill="#c026d3" />
            <text x="1194.6728515625" y="1939" class="value">231.6 MiB</text>
<text x="730" y="1965" text-anchor="end" class="engine">Jimp · pure JS</text>
            <rect x="760" y="1950" width="635.7772460937499" height="19" rx="4" fill="#7c3aed" />
            <text x="1407.77724609375" y="1965" class="value">348.4 MiB</text>
<text x="730" y="1991" text-anchor="end" class="engine">Sharp · native/libvips</text>
            <rect x="760" y="1976" width="354.49199218750005" height="19" rx="4" fill="#ea580c" />
            <text x="1126.4919921875" y="1991" class="value">194.2 MiB</text>
<text x="730" y="2017" text-anchor="end" class="engine">Sharp 1 thread · native/libvips</text>
            <rect x="760" y="2002" width="356.06035156250005" height="19" rx="4" fill="#dc2626" />
            <text x="1128.0603515625" y="2017" class="value">195.1 MiB</text>
<text x="730" y="2043" text-anchor="end" class="engine">image-js · pure JS</text>
            <rect x="760" y="2028" width="476.8667968750001" height="19" rx="4" fill="#059669" />
            <text x="1248.866796875" y="2043" class="value">261.3 MiB</text>
<text x="730" y="2069" text-anchor="end" class="engine">jSquash · WebAssembly</text>
              <text x="772" y="2069" class="unsupported">unsupported</text>
<text x="54" y="2107" class="workflow">AVIF full decode → PNG</text>
        <line x1="54" y1="2293" x2="2328" y2="2293" stroke="#e8edf5" stroke-width="2" />
        <text x="730" y="2133" text-anchor="end" class="engine">PureJsImage · pure JS</text>
            <rect x="760" y="2118" width="326.78193359374995" height="19" rx="4" fill="#2563eb" />
            <text x="1098.78193359375" y="2133" class="value">179.1 MiB</text>
<text x="730" y="2159" text-anchor="end" class="engine">PureJsImage · WASM opt-in (JPEG/PNG)</text>
            <rect x="760" y="2144" width="329.24140624999995" height="19" rx="4" fill="#c026d3" />
            <text x="1101.24140625" y="2159" class="value">180.4 MiB</text>
<text x="730" y="2185" text-anchor="end" class="engine">Jimp · pure JS</text>
              <text x="772" y="2185" class="unsupported">unsupported</text>
<text x="730" y="2211" text-anchor="end" class="engine">Sharp · native/libvips</text>
            <rect x="760" y="2196" width="284.1724609375001" height="19" rx="4" fill="#ea580c" />
            <text x="1056.1724609375" y="2211" class="value">155.7 MiB</text>
<text x="730" y="2237" text-anchor="end" class="engine">Sharp 1 thread · native/libvips</text>
            <rect x="760" y="2222" width="284.2793945312501" height="19" rx="4" fill="#dc2626" />
            <text x="1056.27939453125" y="2237" class="value">155.8 MiB</text>
<text x="730" y="2263" text-anchor="end" class="engine">image-js · pure JS</text>
              <text x="772" y="2263" class="unsupported">unsupported</text>
<text x="730" y="2289" text-anchor="end" class="engine">jSquash · WebAssembly</text>
            <rect x="760" y="2274" width="326.5252929687499" height="19" rx="4" fill="#0891b2" />
            <text x="1098.52529296875" y="2289" class="value">178.9 MiB</text>
<text x="54" y="2327" class="workflow">AVIF resize → JPEG</text>
        <line x1="54" y1="2513" x2="2328" y2="2513" stroke="#e8edf5" stroke-width="2" />
        <text x="730" y="2353" text-anchor="end" class="engine">PureJsImage · pure JS</text>
            <rect x="760" y="2338" width="302.3155273437501" height="19" rx="4" fill="#2563eb" />
            <text x="1074.31552734375" y="2353" class="value">165.7 MiB</text>
<text x="730" y="2379" text-anchor="end" class="engine">PureJsImage · WASM opt-in (JPEG/PNG)</text>
            <rect x="760" y="2364" width="299.69921875" height="19" rx="4" fill="#c026d3" />
            <text x="1071.69921875" y="2379" class="value">164.2 MiB</text>
<text x="730" y="2405" text-anchor="end" class="engine">Jimp · pure JS</text>
              <text x="772" y="2405" class="unsupported">unsupported</text>
<text x="730" y="2431" text-anchor="end" class="engine">Sharp · native/libvips</text>
            <rect x="760" y="2416" width="282.7466796875001" height="19" rx="4" fill="#ea580c" />
            <text x="1054.7466796875" y="2431" class="value">154.9 MiB</text>
<text x="730" y="2457" text-anchor="end" class="engine">Sharp 1 thread · native/libvips</text>
            <rect x="760" y="2442" width="283.59501953125005" height="19" rx="4" fill="#dc2626" />
            <text x="1055.59501953125" y="2457" class="value">155.4 MiB</text>
<text x="730" y="2483" text-anchor="end" class="engine">image-js · pure JS</text>
              <text x="772" y="2483" class="unsupported">unsupported</text>
<text x="730" y="2509" text-anchor="end" class="engine">jSquash · WebAssembly</text>
            <rect x="760" y="2494" width="371.85087890625005" height="19" rx="4" fill="#0891b2" />
            <text x="1143.85087890625" y="2509" class="value">203.8 MiB</text>
<text x="54" y="2547" class="workflow">AVIF crop + resize → JPEG</text>
        <line x1="54" y1="2733" x2="2328" y2="2733" stroke="#e8edf5" stroke-width="2" />
        <text x="730" y="2573" text-anchor="end" class="engine">PureJsImage · pure JS</text>
            <rect x="760" y="2558" width="293.0693359375" height="19" rx="4" fill="#2563eb" />
            <text x="1065.0693359375" y="2573" class="value">160.6 MiB</text>
<text x="730" y="2599" text-anchor="end" class="engine">PureJsImage · WASM opt-in (JPEG/PNG)</text>
            <rect x="760" y="2584" width="289.04150390625" height="19" rx="4" fill="#c026d3" />
            <text x="1061.04150390625" y="2599" class="value">158.4 MiB</text>
<text x="730" y="2625" text-anchor="end" class="engine">Jimp · pure JS</text>
              <text x="772" y="2625" class="unsupported">unsupported</text>
<text x="730" y="2651" text-anchor="end" class="engine">Sharp · native/libvips</text>
            <rect x="760" y="2636" width="259.81298828125" height="19" rx="4" fill="#ea580c" />
            <text x="1031.81298828125" y="2651" class="value">142.4 MiB</text>
<text x="730" y="2677" text-anchor="end" class="engine">Sharp 1 thread · native/libvips</text>
            <rect x="760" y="2662" width="259.19990234374995" height="19" rx="4" fill="#dc2626" />
            <text x="1031.19990234375" y="2677" class="value">142.0 MiB</text>
<text x="730" y="2703" text-anchor="end" class="engine">image-js · pure JS</text>
              <text x="772" y="2703" class="unsupported">unsupported</text>
<text x="730" y="2729" text-anchor="end" class="engine">jSquash · WebAssembly</text>
              <text x="772" y="2729" class="unsupported">unsupported</text>
<text x="54" y="2767" class="workflow">JPEG → AVIF</text>
        <line x1="54" y1="2953" x2="2328" y2="2953" stroke="#e8edf5" stroke-width="2" />
        <text x="730" y="2793" text-anchor="end" class="engine">PureJsImage · pure JS</text>
            <rect x="760" y="2778" width="278.9683593750001" height="19" rx="4" fill="#2563eb" />
            <text x="1050.968359375" y="2793" class="value">152.9 MiB</text>
<text x="730" y="2819" text-anchor="end" class="engine">PureJsImage · WASM opt-in (JPEG/PNG)</text>
            <rect x="760" y="2804" width="280.8290039062499" height="19" rx="4" fill="#c026d3" />
            <text x="1052.82900390625" y="2819" class="value">153.9 MiB</text>
<text x="730" y="2845" text-anchor="end" class="engine">Jimp · pure JS</text>
              <text x="772" y="2845" class="unsupported">unsupported</text>
<text x="730" y="2871" text-anchor="end" class="engine">Sharp · native/libvips</text>
            <rect x="760" y="2856" width="289.96826171875" height="19" rx="4" fill="#ea580c" />
            <text x="1061.96826171875" y="2871" class="value">158.9 MiB</text>
<text x="730" y="2897" text-anchor="end" class="engine">Sharp 1 thread · native/libvips</text>
            <rect x="760" y="2882" width="282.72529296874995" height="19" rx="4" fill="#dc2626" />
            <text x="1054.72529296875" y="2897" class="value">154.9 MiB</text>
<text x="730" y="2923" text-anchor="end" class="engine">image-js · pure JS</text>
              <text x="772" y="2923" class="unsupported">unsupported</text>
<text x="730" y="2949" text-anchor="end" class="engine">jSquash · WebAssembly</text>
            <rect x="760" y="2934" width="1076.98525390625" height="19" rx="4" fill="#0891b2" />
            <text x="1848.98525390625" y="2949" class="value">590.1 MiB</text>
    <text x="54" y="3040" class="footer">Absolute process RSS from isolated workers. PureJsImage WASM accelerates JPEG/PNG only and uses TypeScript fallback for WebP, TIFF, and AVIF; jSquash AVIF is WebAssembly.</text>
    <text x="54" y="3080" class="source">Source: 2026-08-18T01-10-00-015Z-purejsimage-purejsimage-wasm-jimp-sharp-sharp-single-thread-image-js-jsquash-web-codecs.json · Unsupported rows are explicit; only validated outputs contribute performance bars.</text>
  </svg>
